<?xml version="1.0" encoding="UTF-8"?> <svg xmlns="http://www.w3.org/2000/svg" width="174" height="63" viewBox="0 0 174 63" fill="none"><path d="M11.3333 57.5C11.3333 60.4455 8.94553 62.8333 6 62.8333C3.05447 62.8333 0.666672 60.4455 0.666672 57.5C0.666672 54.5545 3.05447 52.1667 6 52.1667C8.94553 52.1667 11.3333 54.5545 11.3333 57.5ZM45 12L44.2407 11.3492L44.5401 11H45V12ZM167.333 12C167.333 14.9455 164.946 17.3333 162 17.3333C159.054 17.3333 156.667 14.9455 156.667 12C156.667 9.05448 159.054 6.66667 162 6.66667C164.946 6.66667 167.333 9.05448 167.333 12ZM160.05 13C159.498 13 159.05 12.5523 159.05 12C159.05 11.4477 159.498 11 160.05 11V13ZM156.15 11C156.702 11 157.15 11.4477 157.15 12C157.15 12.5523 156.702 13 156.15 13V11ZM152.25 13C151.698 13 151.25 12.5523 151.25 12C151.25 11.4477 151.698 11 152.25 11V13ZM148.35 11C148.902 11 149.35 11.4477 149.35 12C149.35 12.5523 148.902 13 148.35 13V11ZM144.45 13C143.898 13 143.45 12.5523 143.45 12C143.45 11.4477 143.898 11 144.45 11V13ZM140.55 11C141.102 11 141.55 11.4477 141.55 12C141.55 12.5523 141.102 13 140.55 13V11ZM136.65 13C136.098 13 135.65 12.5523 135.65 12C135.65 11.4477 136.098 11 136.65 11V13ZM132.75 11C133.302 11 133.75 11.4477 133.75 12C133.75 12.5523 133.302 13 132.75 13V11ZM128.85 13C128.298 13 127.85 12.5523 127.85 12C127.85 11.4477 128.298 11 128.85 11V13ZM124.95 11C125.502 11 125.95 11.4477 125.95 12C125.95 12.5523 125.502 13 124.95 13V11ZM121.05 13C120.498 13 120.05 12.5523 120.05 12C120.05 11.4477 120.498 11 121.05 11V13ZM117.15 11C117.702 11 118.15 11.4477 118.15 12C118.15 12.5523 117.702 13 117.15 13V11ZM113.25 13C112.698 13 112.25 12.5523 112.25 12C112.25 11.4477 112.698 11 113.25 11V13ZM109.35 11C109.902 11 110.35 11.4477 110.35 12C110.35 12.5523 109.902 13 109.35 13V11ZM105.45 13C104.898 13 104.45 12.5523 104.45 12C104.45 11.4477 104.898 11 105.45 11V13ZM101.55 11C102.102 11 102.55 11.4477 102.55 12C102.55 12.5523 102.102 13 101.55 13V11ZM97.65 13C97.0977 13 96.65 12.5523 96.65 12C96.65 11.4477 97.0977 11 97.65 11V13ZM93.75 11C94.3023 11 94.75 11.4477 94.75 12C94.75 12.5523 94.3023 13 93.75 13V11ZM89.85 13C89.2977 13 88.85 12.5523 88.85 12C88.85 11.4477 89.2977 11 89.85 11V13ZM85.95 11C86.5023 11 86.95 11.4477 86.95 12C86.95 12.5523 86.5023 13 85.95 13V11ZM82.05 13C81.4977 13 81.05 12.5523 81.05 12C81.05 11.4477 81.4977 11 82.05 11V13ZM78.15 11C78.7023 11 79.15 11.4477 79.15 12C79.15 12.5523 78.7023 13 78.15 13V11ZM74.25 13C73.6977 13 73.25 12.5523 73.25 12C73.25 11.4477 73.6977 11 74.25 11V13ZM70.35 11C70.9023 11 71.35 11.4477 71.35 12C71.35 12.5523 70.9023 13 70.35 13V11ZM66.45 13C65.8977 13 65.45 12.5523 65.45 12C65.45 11.4477 65.8977 11 66.45 11V13ZM62.55 11C63.1023 11 63.55 11.4477 63.55 12C63.55 12.5523 63.1023 13 62.55 13V11ZM58.65 13C58.0977 13 57.65 12.5523 57.65 12C57.65 11.4477 58.0977 11 58.65 11V13ZM54.75 11C55.3023 11 55.75 11.4477 55.75 12C55.75 12.5523 55.3023 13 54.75 13V11ZM50.85 13C50.2977 13 49.85 12.5523 49.85 12C49.85 11.4477 50.2977 11 50.85 11V13ZM46.95 11C47.5023 11 47.95 11.4477 47.95 12C47.95 12.5523 47.5023 13 46.95 13V11ZM44.3664 14.2758C44.007 14.6951 43.3757 14.7437 42.9564 14.3843C42.537 14.0248 42.4885 13.3935 42.8479 12.9742L44.3664 14.2758ZM40.0622 16.2242C40.4216 15.8049 41.0529 15.7563 41.4722 16.1157C41.8915 16.4752 41.9401 17.1065 41.5807 17.5258L40.0622 16.2242ZM38.795 20.7758C38.4355 21.1951 37.8042 21.2437 37.3849 20.8843C36.9656 20.5248 36.917 19.8935 37.2765 19.4742L38.795 20.7758ZM34.4907 22.7242C34.8502 22.3049 35.4815 22.2563 35.9008 22.6157C36.3201 22.9752 36.3687 23.6065 36.0093 24.0258L34.4907 22.7242ZM33.2235 27.2758C32.8641 27.6951 32.2328 27.7437 31.8135 27.3843C31.3942 27.0248 31.3456 26.3935 31.705 25.9742L33.2235 27.2758ZM28.9193 29.2242C29.2787 28.8049 29.91 28.7563 30.3294 29.1157C30.7487 29.4752 30.7973 30.1065 30.4378 30.5258L28.9193 29.2242ZM27.6521 33.7758C27.2927 34.1951 26.6614 34.2437 26.2421 33.8843C25.8227 33.5248 25.7742 32.8935 26.1336 32.4742L27.6521 33.7758ZM23.3479 35.7242C23.7073 35.3049 24.3386 35.2563 24.7579 35.6157C25.1773 35.9752 25.2258 36.6065 24.8664 37.0258L23.3479 35.7242ZM22.0807 40.2758C21.7213 40.6951 21.09 40.7437 20.6706 40.3843C20.2513 40.0248 20.2027 39.3935 20.5622 38.9742L22.0807 40.2758ZM17.7765 42.2242C18.1359 41.8049 18.7672 41.7563 19.1865 42.1157C19.6058 42.4752 19.6544 43.1065 19.295 43.5258L17.7765 42.2242ZM16.5093 46.7758C16.1498 47.1951 15.5185 47.2437 15.0992 46.8843C14.6799 46.5248 14.6313 45.8935 14.9908 45.4742L16.5093 46.7758ZM12.205 48.7242C12.5645 48.3049 13.1958 48.2563 13.6151 48.6157C14.0344 48.9752 14.083 49.6065 13.7235 50.0258L12.205 48.7242ZM10.9378 53.2758C10.5784 53.6951 9.94711 53.7437 9.52779 53.3843C9.10846 53.0248 9.05989 52.3935 9.41931 51.9742L10.9378 53.2758ZM6.63361 55.2242C6.99303 54.8049 7.62433 54.7563 8.04366 55.1157C8.46298 55.4752 8.51154 56.1065 8.15211 56.5258L6.63361 55.2242ZM162 13H160.05V11H162V13ZM156.15 13H152.25V11H156.15V13ZM148.35 13H144.45V11H148.35V13ZM140.55 13H136.65V11H140.55V13ZM132.75 13H128.85V11H132.75V13ZM124.95 13H121.05V11H124.95V13ZM117.15 13H113.25V11H117.15V13ZM109.35 13H105.45V11H109.35V13ZM101.55 13H97.65V11H101.55V13ZM93.75 13H89.85V11H93.75V13ZM85.95 13H82.05V11H85.95V13ZM78.15 13H74.25V11H78.15V13ZM70.35 13H66.45V11H70.35V13ZM62.55 13H58.65V11H62.55V13ZM54.75 13H50.85V11H54.75V13ZM46.95 13H45V11H46.95V13ZM45.7593 12.6508L44.3664 14.2758L42.8479 12.9742L44.2407 11.3492L45.7593 12.6508ZM41.5807 17.5258L38.795 20.7758L37.2765 19.4742L40.0622 16.2242L41.5807 17.5258ZM36.0093 24.0258L33.2235 27.2758L31.705 25.9742L34.4907 22.7242L36.0093 24.0258ZM30.4378 30.5258L27.6521 33.7758L26.1336 32.4742L28.9193 29.2242L30.4378 30.5258ZM24.8664 37.0258L22.0807 40.2758L20.5622 38.9742L23.3479 35.7242L24.8664 37.0258ZM19.295 43.5258L16.5093 46.7758L14.9908 45.4742L17.7765 42.2242L19.295 43.5258ZM13.7235 50.0258L10.9378 53.2758L9.41931 51.9742L12.205 48.7242L13.7235 50.0258ZM8.15211 56.5258L6.75926 58.1508L5.24074 56.8492L6.63361 55.2242L8.15211 56.5258Z" fill="#F58220"></path><circle opacity="0.25" cx="12" cy="12" r="12" transform="matrix(-1 0 0 1 174 0)" fill="#F58220"></circle></svg> 