<?xml version="1.0" encoding="UTF-8"?> <svg xmlns="http://www.w3.org/2000/svg" width="209" height="92" viewBox="0 0 209 92" fill="none"><path d="M11.3333 6C11.3333 3.05448 8.94553 0.666664 6 0.666664C3.05447 0.666664 0.666672 3.05448 0.666672 6C0.666672 8.94552 3.05447 11.3333 6 11.3333C8.94553 11.3333 11.3333 8.94552 11.3333 6ZM126.5 80L125.977 80.8521L126.217 81H126.5V80ZM201.833 80C201.833 77.0545 199.446 74.6667 196.5 74.6667C193.554 74.6667 191.167 77.0545 191.167 80C191.167 82.9455 193.554 85.3333 196.5 85.3333C199.446 85.3333 201.833 82.9455 201.833 80ZM194.556 79C194.003 79 193.556 79.4477 193.556 80C193.556 80.5523 194.003 81 194.556 81V79ZM190.667 81C191.219 81 191.667 80.5523 191.667 80C191.667 79.4477 191.219 79 190.667 79V81ZM186.778 79C186.225 79 185.778 79.4477 185.778 80C185.778 80.5523 186.225 81 186.778 81V79ZM182.889 81C183.441 81 183.889 80.5523 183.889 80C183.889 79.4477 183.441 79 182.889 79V81ZM179 79C178.448 79 178 79.4477 178 80C178 80.5523 178.448 81 179 81V79ZM175.111 81C175.663 81 176.111 80.5523 176.111 80C176.111 79.4477 175.663 79 175.111 79V81ZM171.222 79C170.67 79 170.222 79.4477 170.222 80C170.222 80.5523 170.67 81 171.222 81V79ZM167.333 81C167.886 81 168.333 80.5523 168.333 80C168.333 79.4477 167.886 79 167.333 79V81ZM163.444 79C162.892 79 162.444 79.4477 162.444 80C162.444 80.5523 162.892 81 163.444 81V79ZM159.556 81C160.108 81 160.556 80.5523 160.556 80C160.556 79.4477 160.108 79 159.556 79V81ZM155.667 79C155.114 79 154.667 79.4477 154.667 80C154.667 80.5523 155.114 81 155.667 81V79ZM151.778 81C152.33 81 152.778 80.5523 152.778 80C152.778 79.4477 152.33 79 151.778 79V81ZM147.889 79C147.337 79 146.889 79.4477 146.889 80C146.889 80.5523 147.337 81 147.889 81V79ZM144 81C144.552 81 145 80.5523 145 80C145 79.4477 144.552 79 144 79V81ZM140.111 79C139.559 79 139.111 79.4477 139.111 80C139.111 80.5523 139.559 81 140.111 81V79ZM136.222 81C136.775 81 137.222 80.5523 137.222 80C137.222 79.4477 136.775 79 136.222 79V81ZM132.333 79C131.781 79 131.333 79.4477 131.333 80C131.333 80.5523 131.781 81 132.333 81V79ZM128.444 81C128.997 81 129.444 80.5523 129.444 80C129.444 79.4477 128.997 79 128.444 79V81ZM125.35 78.1201C124.879 77.8311 124.263 77.9783 123.974 78.4489C123.685 78.9195 123.832 79.5354 124.303 79.8244L125.35 78.1201ZM120.956 77.7688C121.426 78.0578 122.042 77.9106 122.331 77.44C122.62 76.9693 122.473 76.3535 122.002 76.0645L120.956 77.7688ZM118.655 74.009C118.185 73.72 117.569 73.8672 117.28 74.3378C116.991 74.8084 117.138 75.4242 117.609 75.7133L118.655 74.009ZM114.261 73.6577C114.732 73.9467 115.348 73.7995 115.637 73.3289C115.926 72.8582 115.779 72.2424 115.308 71.9534L114.261 73.6577ZM111.961 69.8979C111.49 69.6088 110.874 69.7561 110.585 70.2267C110.296 70.6973 110.444 71.3131 110.914 71.6021L111.961 69.8979ZM107.567 69.5466C108.038 69.8356 108.653 69.6884 108.942 69.2178C109.231 68.7471 109.084 68.1313 108.614 67.8423L107.567 69.5466ZM105.266 65.7867C104.796 65.4977 104.18 65.645 103.891 66.1156C103.602 66.5862 103.749 67.202 104.22 67.491L105.266 65.7867ZM100.873 65.4355C101.343 65.7245 101.959 65.5773 102.248 65.1066C102.537 64.636 102.39 64.0202 101.919 63.7312L100.873 65.4355ZM98.5719 61.6756C98.1013 61.3866 97.4855 61.5338 97.1965 62.0045C96.9074 62.4751 97.0547 63.0909 97.5253 63.3799L98.5719 61.6756ZM94.1781 61.3244C94.6487 61.6134 95.2645 61.4662 95.5535 60.9955C95.8425 60.5249 95.6953 59.9091 95.2247 59.6201L94.1781 61.3244ZM91.8775 57.5645C91.4069 57.2755 90.791 57.4227 90.502 57.8934C90.213 58.364 90.3602 58.9798 90.8309 59.2688L91.8775 57.5645ZM87.4836 57.2133C87.9543 57.5023 88.5701 57.355 88.8591 56.8844C89.1481 56.4138 89.0009 55.798 88.5303 55.509L87.4836 57.2133ZM85.183 53.4534C84.7124 53.1644 84.0966 53.3116 83.8076 53.7823C83.5186 54.2529 83.6658 54.8687 84.1364 55.1577L85.183 53.4534ZM80.7892 53.1021C81.2598 53.3912 81.8756 53.2439 82.1646 52.7733C82.4537 52.3027 82.3064 51.6869 81.8358 51.3979L80.7892 53.1021ZM78.4886 49.3423C78.018 49.0533 77.4022 49.2005 77.1131 49.6711C76.8241 50.1418 76.9714 50.7576 77.442 51.0466L78.4886 49.3423ZM74.0948 48.991C74.5654 49.2801 75.1812 49.1328 75.4702 48.6622C75.7592 48.1916 75.612 47.5758 75.1414 47.2868L74.0948 48.991ZM71.7942 45.2312C71.3235 44.9422 70.7077 45.0894 70.4187 45.56C70.1297 46.0307 70.2769 46.6465 70.7475 46.9355L71.7942 45.2312ZM67.4003 44.8799C67.8709 45.1689 68.4867 45.0217 68.7758 44.5511C69.0648 44.0805 68.9176 43.4647 68.4469 43.1756L67.4003 44.8799ZM65.0997 41.1201C64.6291 40.8311 64.0133 40.9783 63.7243 41.4489C63.4352 41.9195 63.5825 42.5354 64.0531 42.8244L65.0997 41.1201ZM60.7059 40.7688C61.1765 41.0578 61.7923 40.9106 62.0813 40.44C62.3703 39.9694 62.2231 39.3535 61.7525 39.0645L60.7059 40.7688ZM58.4053 37.009C57.9346 36.72 57.3188 36.8672 57.0298 37.3378C56.7408 37.8084 56.888 38.4242 57.3586 38.7133L58.4053 37.009ZM54.0114 36.6577C54.4821 36.9467 55.0979 36.7995 55.3869 36.3289C55.6759 35.8582 55.5287 35.2424 55.058 34.9534L54.0114 36.6577ZM51.7108 32.8979C51.2402 32.6088 50.6244 32.7561 50.3354 33.2267C50.0464 33.6973 50.1936 34.3131 50.6642 34.6022L51.7108 32.8979ZM47.317 32.5466C47.7876 32.8356 48.4034 32.6884 48.6924 32.2178C48.9814 31.7471 48.8342 31.1313 48.3636 30.8423L47.317 32.5466ZM45.0164 28.7868C44.5458 28.4977 43.9299 28.645 43.6409 29.1156C43.3519 29.5862 43.4991 30.202 43.9698 30.491L45.0164 28.7868ZM40.6225 28.4355C41.0932 28.7245 41.709 28.5773 41.998 28.1067C42.287 27.636 42.1398 27.0202 41.6692 26.7312L40.6225 28.4355ZM38.3219 24.6756C37.8513 24.3866 37.2355 24.5339 36.9465 25.0045C36.6575 25.4751 36.8047 26.0909 37.2753 26.3799L38.3219 24.6756ZM33.9281 24.3244C34.3987 24.6134 35.0145 24.4662 35.3036 23.9955C35.5926 23.5249 35.4453 22.9091 34.9747 22.6201L33.9281 24.3244ZM31.6275 20.5645C31.1569 20.2755 30.5411 20.4227 30.252 20.8934C29.963 21.364 30.1102 21.9798 30.5809 22.2688L31.6275 20.5645ZM27.2337 20.2133C27.7043 20.5023 28.3201 20.3551 28.6091 19.8844C28.8981 19.4138 28.7509 18.798 28.2803 18.509L27.2337 20.2133ZM24.9331 16.4534C24.4624 16.1644 23.8466 16.3116 23.5576 16.7823C23.2686 17.2529 23.4158 17.8687 23.8864 18.1577L24.9331 16.4534ZM20.5392 16.1022C21.0098 16.3912 21.6257 16.2439 21.9147 15.7733C22.2037 15.3027 22.0565 14.6869 21.5858 14.3979L20.5392 16.1022ZM18.2386 12.3423C17.768 12.0533 17.1522 12.2005 16.8632 12.6712C16.5741 13.1418 16.7214 13.7576 17.192 14.0466L18.2386 12.3423ZM13.8448 11.9911C14.3154 12.2801 14.9312 12.1328 15.2202 11.6622C15.5092 11.1916 15.362 10.5758 14.8914 10.2868L13.8448 11.9911ZM11.5442 8.2312C11.0735 7.94219 10.4577 8.08942 10.1687 8.56004C9.8797 9.03066 10.0269 9.64648 10.4975 9.93549L11.5442 8.2312ZM7.15031 7.87993C7.62094 8.16895 8.23676 8.02172 8.52577 7.55109C8.81479 7.08047 8.66756 6.46466 8.19693 6.17564L7.15031 7.87993ZM196.5 79H194.556V81H196.5V79ZM190.667 79H186.778V81H190.667V79ZM182.889 79H179V81H182.889V79ZM175.111 79H171.222V81H175.111V79ZM167.333 79H163.444V81H167.333V79ZM159.556 79H155.667V81H159.556V79ZM151.778 79H147.889V81H151.778V79ZM144 79H140.111V81H144V79ZM136.222 79H132.333V81H136.222V79ZM128.444 79H126.5V81H128.444V79ZM127.023 79.1479L125.35 78.1201L124.303 79.8244L125.977 80.8521L127.023 79.1479ZM122.002 76.0645L118.655 74.009L117.609 75.7133L120.956 77.7688L122.002 76.0645ZM115.308 71.9534L111.961 69.8979L110.914 71.6021L114.261 73.6577L115.308 71.9534ZM108.614 67.8423L105.266 65.7867L104.22 67.491L107.567 69.5466L108.614 67.8423ZM101.919 63.7312L98.5719 61.6756L97.5253 63.3799L100.873 65.4355L101.919 63.7312ZM95.2247 59.6201L91.8775 57.5645L90.8309 59.2688L94.1781 61.3244L95.2247 59.6201ZM88.5303 55.509L85.183 53.4534L84.1364 55.1577L87.4836 57.2133L88.5303 55.509ZM81.8358 51.3979L78.4886 49.3423L77.442 51.0466L80.7892 53.1021L81.8358 51.3979ZM75.1414 47.2868L71.7942 45.2312L70.7475 46.9355L74.0948 48.991L75.1414 47.2868ZM68.4469 43.1756L65.0997 41.1201L64.0531 42.8244L67.4003 44.8799L68.4469 43.1756ZM61.7525 39.0645L58.4053 37.009L57.3586 38.7133L60.7059 40.7688L61.7525 39.0645ZM55.058 34.9534L51.7108 32.8979L50.6642 34.6022L54.0114 36.6577L55.058 34.9534ZM48.3636 30.8423L45.0164 28.7868L43.9698 30.491L47.317 32.5466L48.3636 30.8423ZM41.6692 26.7312L38.3219 24.6756L37.2753 26.3799L40.6225 28.4355L41.6692 26.7312ZM34.9747 22.6201L31.6275 20.5645L30.5809 22.2688L33.9281 24.3244L34.9747 22.6201ZM28.2803 18.509L24.9331 16.4534L23.8864 18.1577L27.2337 20.2133L28.2803 18.509ZM21.5858 14.3979L18.2386 12.3423L17.192 14.0466L20.5392 16.1022L21.5858 14.3979ZM14.8914 10.2868L11.5442 8.2312L10.4975 9.93549L13.8448 11.9911L14.8914 10.2868ZM8.19693 6.17564L6.52332 5.14786L5.47668 6.85214L7.15031 7.87993L8.19693 6.17564Z" fill="#F58220"></path><circle opacity="0.25" cx="12" cy="12" r="12" transform="matrix(-1 0 0 1 209 68)" fill="#F58220"></circle></svg> 